<svg width="80" height="80" viewBox="0 0 80 80" fill="none" xmlns="http://www.w3.org/2000/svg">
<path d="M40 80C62.0914 80 80 62.0914 80 40C80 17.9086 62.0914 0 40 0C17.9086 0 0 17.9086 0 40C0 62.0914 17.9086 80 40 80Z" fill="white"/>
<path d="M23.5919 37.1581L23.1441 37.8451C18.0931 45.5934 19.2213 55.7409 25.8563 62.2419C29.7595 66.0665 34.8753 67.979 39.9913 67.9795C39.9913 67.9795 39.9913 67.9795 23.5919 37.1581Z" fill="#00A3FF"/>
<path opacity="0.6" d="M39.9865 46.5256L23.5872 37.1581C39.9865 67.9795 39.9865 67.9795 39.9865 67.9795C39.9865 61.2669 39.9865 53.575 39.9865 46.5256Z" fill="#00A3FF"/>
<path opacity="0.6" d="M56.4082 37.1581L56.856 37.8451C61.9069 45.5934 60.7788 55.7409 54.1438 62.2419C50.2405 66.0665 45.1247 67.979 40.0088 67.9795C40.0088 67.9795 40.0088 67.9795 56.4082 37.1581Z" fill="#00A3FF"/>
<path opacity="0.2" d="M40.0068 46.5256L56.4062 37.1581C40.007 67.9795 40.0068 67.9795 40.0068 67.9795C40.0068 61.2669 40.0068 53.575 40.0068 46.5256Z" fill="#00A3FF"/>
<path opacity="0.2" d="M40.0129 25.5989V41.7552L54.1392 33.6823L40.0129 25.5989Z" fill="#00A3FF"/>
<path opacity="0.6" d="M40.0087 25.5989L25.8723 33.682L40.0087 41.7552V25.5989Z" fill="#00A3FF"/>
<path d="M40.0087 12.0117L25.8723 33.6873L40.0087 25.5816V12.0117Z" fill="#00A3FF"/>
<path opacity="0.6" d="M40.0129 25.5791L54.15 33.6852L40.0129 11.9987V25.5791Z" fill="#00A3FF"/>
</svg>
