<svg width="80" height="80" viewBox="0 0 80 80" fill="none" xmlns="http://www.w3.org/2000/svg">
<path d="M80 40C80 62.0914 62.0914 80 40 80C17.9086 80 0 62.0914 0 40C0 17.9086 17.9086 0 40 0C62.0914 0 80 17.9086 80 40Z" fill="#FDF9F9"/>
<mask id="path-2-inside-1_31_445" fill="white">
<path fill-rule="evenodd" clip-rule="evenodd" d="M39.3838 37.4843C46.052 34.8696 51.5698 34.6887 55.9371 36.9417C56.2316 37.0936 56.5028 37.2546 56.7525 37.4233L39.9611 9.66667L39.8632 9.8278L39.3838 10.9466V37.4843Z"/>
</mask>
<path fill-rule="evenodd" clip-rule="evenodd" d="M39.3838 37.4843C46.052 34.8696 51.5698 34.6887 55.9371 36.9417C56.2316 37.0936 56.5028 37.2546 56.7525 37.4233L39.9611 9.66667L39.8632 9.8278L39.3838 10.9466V37.4843Z" fill="#B8FBF6"/>
<path d="M39.3838 37.4843H38.8838V38.2175L39.5664 37.9498L39.3838 37.4843ZM55.9371 36.9417L56.1663 36.4974L55.9371 36.9417ZM56.7525 37.4233L56.4726 37.8376L57.1803 37.1645L56.7525 37.4233ZM39.9611 9.66667L40.3889 9.40787L39.9619 8.70207L39.5337 9.40713L39.9611 9.66667ZM39.8632 9.8278L39.4359 9.56826L39.4175 9.59843L39.4036 9.63088L39.8632 9.8278ZM39.3838 10.9466L38.9242 10.7497L38.8838 10.844V10.9466H39.3838ZM39.5664 37.9498C46.1632 35.3631 51.5179 35.2246 55.7079 37.3861L56.1663 36.4974C51.6217 34.1529 45.9409 34.3761 39.2013 37.0189L39.5664 37.9498ZM55.7079 37.3861C55.9856 37.5293 56.2398 37.6804 56.4726 37.8376L57.0324 37.009C56.7658 36.8289 56.4775 36.6579 56.1663 36.4974L55.7079 37.3861ZM57.1803 37.1645L40.3889 9.40787L39.5333 9.92548L56.3247 37.6821L57.1803 37.1645ZM39.5337 9.40713L39.4359 9.56826L40.2906 10.0873L40.3884 9.92621L39.5337 9.40713ZM39.4036 9.63088L38.9242 10.7497L39.8434 11.1435L40.3228 10.0247L39.4036 9.63088ZM38.8838 10.9466V37.4843H39.8838V10.9466H38.8838Z" fill="black" mask="url(#path-2-inside-1_31_445)"/>
<mask id="path-4-inside-2_31_445" fill="white">
<path fill-rule="evenodd" clip-rule="evenodd" d="M39.9611 9.66666L21.6667 39.7902C25.4907 41.7062 30.8974 41.144 37.8867 38.1039C38.5903 37.7978 39.2818 37.5175 39.9611 37.263V31.891L39.9611 9.66666ZM39.9611 43.8867C39.6802 44.0028 39.3965 44.1232 39.1101 44.2478C36.4848 45.3898 34.0828 46.1821 31.9041 46.6248L39.9611 51.3811V43.8867Z"/>
</mask>
<path fill-rule="evenodd" clip-rule="evenodd" d="M39.9611 9.66666L21.6667 39.7902C25.4907 41.7062 30.8974 41.144 37.8867 38.1039C38.5903 37.7978 39.2818 37.5175 39.9611 37.263V31.891L39.9611 9.66666ZM39.9611 43.8867C39.6802 44.0028 39.3965 44.1232 39.1101 44.2478C36.4848 45.3898 34.0828 46.1821 31.9041 46.6248L39.9611 51.3811V43.8867Z" fill="#EECBC0"/>
<path d="M39.9611 9.66666L40.4611 9.66666V7.88013L39.5337 9.40712L39.9611 9.66666ZM21.6667 39.7902L21.2393 39.5307L20.9578 39.9943L21.4427 40.2372L21.6667 39.7902ZM37.8867 38.1039L38.0861 38.5624L37.8867 38.1039ZM39.9611 37.263L40.1365 37.7312L40.4611 37.6096V37.263H39.9611ZM39.9611 31.891H39.4611H39.9611ZM39.9611 43.8867H40.4611V43.1388L39.77 43.4246L39.9611 43.8867ZM39.1101 44.2478L39.3095 44.7063H39.3095L39.1101 44.2478ZM31.9041 46.6248L31.8045 46.1348L30.5294 46.3939L31.6499 47.0554L31.9041 46.6248ZM39.9611 51.3811L39.7069 51.8117L40.4611 52.2569V51.3811H39.9611ZM39.5337 9.40712L21.2393 39.5307L22.0941 40.0498L40.3884 9.92621L39.5337 9.40712ZM21.4427 40.2372C25.4729 42.2566 31.0612 41.618 38.0861 38.5624L37.6872 37.6454C30.7335 40.67 25.5084 41.1559 21.8907 39.3432L21.4427 40.2372ZM38.0861 38.5624C38.7823 38.2596 39.4657 37.9825 40.1365 37.7312L39.7856 36.7948C39.0978 37.0525 38.3983 37.3361 37.6872 37.6454L38.0861 38.5624ZM40.4611 37.263V31.891H39.4611V37.263H40.4611ZM40.4611 31.891L40.4611 9.66666L39.4611 9.66666L39.4611 31.891H40.4611ZM39.77 43.4246C39.4862 43.542 39.1997 43.6636 38.9106 43.7893L39.3095 44.7063C39.5933 44.5829 39.8741 44.4637 40.1522 44.3487L39.77 43.4246ZM38.9106 43.7893C36.3088 44.9211 33.9408 45.7007 31.8045 46.1348L32.0036 47.1148C34.2248 46.6635 36.6608 45.8585 39.3095 44.7063L38.9106 43.7893ZM31.6499 47.0554L39.7069 51.8117L40.2152 50.9505L32.1582 46.1942L31.6499 47.0554ZM40.4611 51.3811V43.8867H39.4611V51.3811H40.4611Z" fill="black" mask="url(#path-4-inside-2_31_445)"/>
<mask id="path-6-inside-3_31_445" fill="white">
<path fill-rule="evenodd" clip-rule="evenodd" d="M43.2217 65.4943L58.048 44.5624C52.9547 40.7069 47.4273 40.8054 39.9946 43.8728L39.9171 43.9288L39.6877 55.2057V69.4903L39.826 69.894L39.9611 70.0833L43.2217 65.4943Z"/>
</mask>
<path fill-rule="evenodd" clip-rule="evenodd" d="M43.2217 65.4943L58.048 44.5624C52.9547 40.7069 47.4273 40.8054 39.9946 43.8728L39.9171 43.9288L39.6877 55.2057V69.4903L39.826 69.894L39.9611 70.0833L43.2217 65.4943Z" fill="#C9B3F5"/>
<path d="M43.2217 65.4943L43.6293 65.7839L43.6297 65.7833L43.2217 65.4943ZM58.048 44.5624L58.456 44.8514L58.736 44.4561L58.3498 44.1638L58.048 44.5624ZM39.9946 43.8728L39.8039 43.4106L39.7495 43.433L39.7018 43.4675L39.9946 43.8728ZM39.9171 43.9288L39.6243 43.5235L39.4223 43.6694L39.4172 43.9186L39.9171 43.9288ZM39.6877 55.2057L39.1877 55.1955V55.2057H39.6877ZM39.6877 69.4903H39.1877V69.5736L39.2147 69.6524L39.6877 69.4903ZM39.826 69.894L39.353 70.056L39.3766 70.125L39.419 70.1843L39.826 69.894ZM39.9611 70.0833L39.554 70.3737L39.9619 70.9454L40.3687 70.3729L39.9611 70.0833ZM43.6297 65.7833L58.456 44.8514L57.64 44.2734L42.8136 65.2053L43.6297 65.7833ZM58.3498 44.1638C55.7244 42.1763 52.969 41.1983 49.9111 41.1216C46.8668 41.0453 43.5538 41.863 39.8039 43.4106L40.1854 44.335C43.8681 42.8151 47.0351 42.0499 49.886 42.1213C52.7233 42.1925 55.2783 43.0929 57.7462 44.9611L58.3498 44.1638ZM39.7018 43.4675L39.6243 43.5235L40.2098 44.3341L40.2874 44.2781L39.7018 43.4675ZM39.4172 43.9186L39.1878 55.1955L40.1876 55.2159L40.417 43.939L39.4172 43.9186ZM39.1877 55.2057V69.4903H40.1877V55.2057H39.1877ZM39.2147 69.6524L39.353 70.056L40.299 69.7319L40.1607 69.3283L39.2147 69.6524ZM39.419 70.1843L39.554 70.3737L40.3681 69.793L40.2331 69.6036L39.419 70.1843ZM40.3687 70.3729L43.6293 65.7839L42.8141 65.2047L39.5535 69.7937L40.3687 70.3729Z" fill="black" mask="url(#path-6-inside-3_31_445)"/>
<mask id="path-8-inside-4_31_445" fill="white">
<path fill-rule="evenodd" clip-rule="evenodd" d="M39.9609 70.0833L39.9609 43.9288H39.8593C39.6117 44.0319 39.3619 44.1383 39.1099 44.2479C32.7893 46.9972 27.7629 47.7199 24.0308 46.4162C23.3691 46.1851 22.8228 45.8413 22.3721 45.4249L39.9609 70.0833Z"/>
</mask>
<path fill-rule="evenodd" clip-rule="evenodd" d="M39.9609 70.0833L39.9609 43.9288H39.8593C39.6117 44.0319 39.3619 44.1383 39.1099 44.2479C32.7893 46.9972 27.7629 47.7199 24.0308 46.4162C23.3691 46.1851 22.8228 45.8413 22.3721 45.4249L39.9609 70.0833Z" fill="#87A9F0"/>
<path d="M39.9609 70.0833L39.5539 70.3737L40.4609 71.6453V70.0833H39.9609ZM39.9609 43.9288L40.4609 43.9288V43.4288H39.9609V43.9288ZM39.8593 43.9288V43.4288H39.7594L39.6672 43.4672L39.8593 43.9288ZM39.1099 44.2479L39.3094 44.7064V44.7064L39.1099 44.2479ZM24.0308 46.4162L24.1957 45.9442L24.1957 45.9442L24.0308 46.4162ZM22.3721 45.4249L22.7114 45.0576L21.9651 45.7152L22.3721 45.4249ZM40.4609 70.0833L40.4609 43.9288L39.4609 43.9288L39.4609 70.0833H40.4609ZM39.9609 43.4288H39.8593V44.4288H39.9609V43.4288ZM39.6672 43.4672C39.417 43.5714 39.1648 43.6787 38.9105 43.7894L39.3094 44.7064C39.559 44.5978 39.8063 44.4925 40.0515 44.3904L39.6672 43.4672ZM38.9105 43.7894C32.6266 46.5227 27.7473 47.1849 24.1957 45.9442L23.8659 46.8883C27.7785 48.255 32.952 47.4717 39.3094 44.7064L38.9105 43.7894ZM24.1957 45.9442C23.6009 45.7364 23.1136 45.4291 22.7114 45.0576L22.0328 45.7921C22.5321 46.2534 23.1373 46.6337 23.8659 46.8883L24.1957 45.9442ZM21.9651 45.7152L39.5539 70.3737L40.368 69.793L22.7792 45.1345L21.9651 45.7152Z" fill="black" mask="url(#path-8-inside-4_31_445)"/>
</svg>
